<svg width="31" height="38" viewBox="0 0 31 38" fill="none" xmlns="http://www.w3.org/2000/svg">
<path d="M29.9123 33.3219L25.1051 24.9956C25.9024 24.3242 26.4534 23.3693 26.6006 22.2873C26.7006 21.5515 27.079 20.896 27.6662 20.4415C29.1883 19.2633 29.7422 17.1962 29.0132 15.4147C28.7319 14.7275 28.7319 13.9705 29.0132 13.2834C29.7422 11.5019 29.1883 9.43486 27.6662 8.2566C27.079 7.80209 26.7005 7.14657 26.6006 6.4108C26.3412 4.50353 24.8279 2.99028 22.9207 2.73099C22.185 2.63093 21.5295 2.2525 21.075 1.66534C19.8967 0.143183 17.8298 -0.410648 16.0482 0.318366C15.3609 0.599623 14.604 0.599623 13.9169 0.318366C12.1355 -0.410722 10.0683 0.143183 8.89008 1.66534C8.43556 2.2525 7.78004 2.63093 7.04427 2.73099C5.13693 2.99035 3.62375 4.50353 3.36446 6.41087C3.2644 7.14664 2.88598 7.80217 2.29882 8.25668C0.776655 9.43493 0.222824 11.502 0.951837 13.2835C1.23309 13.9706 1.23309 14.7276 0.951837 15.4148C0.22275 17.1962 0.776655 19.2633 2.29882 20.4415C2.88598 20.8961 3.2644 21.5516 3.36446 22.2873C3.51352 23.3836 4.07737 24.3491 4.8916 25.0217L0.0994535 33.3219C-0.0506397 33.5819 -0.0294098 33.9067 0.153419 34.1449C0.336173 34.383 0.644303 34.4877 0.934468 34.41L5.11147 33.2908L6.22588 37.4498C6.3036 37.7398 6.54834 37.9544 6.846 37.9936C6.87851 37.9979 6.91095 38 6.94309 38C7.20572 38 7.45202 37.8604 7.5857 37.6289L12.7567 28.6725C13.1488 28.6302 13.5393 28.5343 13.9168 28.3797C14.604 28.0985 15.361 28.0985 16.0481 28.3797C16.4417 28.5409 16.8494 28.6391 17.2583 28.6783L22.4259 37.6289C22.5597 37.8605 22.8059 38 23.0685 38C23.1008 38 23.1331 37.9979 23.1657 37.9936C23.4634 37.9544 23.7081 37.7398 23.7858 37.4498L24.9003 33.2908L29.0773 34.41C29.3671 34.4877 29.6755 34.3831 29.8583 34.1449C30.041 33.9067 30.0623 33.5819 29.9123 33.3219ZM7.196 35.3346L6.35326 32.1896C6.30227 31.9994 6.17793 31.8373 6.00743 31.7388C5.83692 31.6404 5.63442 31.6138 5.44417 31.6647L2.28115 32.5122L6.18142 25.7567C6.45718 25.8554 6.74587 25.9266 7.0442 25.9672C7.77996 26.0672 8.43549 26.4456 8.89 27.0328C9.46684 27.778 10.2569 28.2906 11.122 28.5346L7.196 35.3346ZM13.3544 27.0058C12.1883 27.4831 10.8353 27.1205 10.0639 26.1242C9.3696 25.2272 8.36816 24.6489 7.24417 24.4961C5.9957 24.3264 5.0051 23.3358 4.83541 22.0873C4.68257 20.9633 4.10439 19.9619 3.20739 19.2675C2.211 18.4963 1.84846 17.1431 2.32569 15.9771C2.75541 14.9272 2.75541 13.7709 2.32569 12.7211C1.84846 11.555 2.211 10.2019 3.20739 9.43063C4.10439 8.73628 4.68257 7.73491 4.83541 6.61085C5.00517 5.36237 5.9957 4.37177 7.24417 4.20201C8.36816 4.04924 9.3696 3.47107 10.0639 2.57407C10.6079 1.87133 11.441 1.48393 12.294 1.48393C12.6506 1.48393 13.0107 1.5517 13.3543 1.69236C14.4043 2.12201 15.5606 2.12201 16.6104 1.69236C17.7764 1.21506 19.1296 1.57768 19.9008 2.57407C20.5952 3.47107 21.5966 4.04924 22.7205 4.20201C23.969 4.37177 24.9595 5.3623 25.1293 6.61085C25.2822 7.73491 25.8603 8.73628 26.7573 9.43063C27.7537 10.2019 28.1163 11.5549 27.639 12.7211C27.2094 13.7709 27.2094 14.9272 27.639 15.9771C28.1163 17.1431 27.7536 18.4963 26.7573 19.2675C25.8603 19.9619 25.2822 20.9632 25.1293 22.0872C24.9595 23.3358 23.9689 24.3264 22.7205 24.4961C21.5965 24.6488 20.5951 25.227 19.9008 26.1241C19.1294 27.1205 17.7764 27.483 16.6104 27.0057C15.5605 26.5761 14.4043 26.5761 13.3544 27.0058ZM24.5675 31.6647C24.1713 31.5585 23.7645 31.7936 23.6584 32.1896L22.8156 35.3346L18.8829 28.5229C19.7323 28.2744 20.5069 27.7665 21.0749 27.0328C21.5294 26.4456 22.1849 26.0671 22.9206 25.9672C23.2329 25.9247 23.5344 25.848 23.8218 25.7421L27.7304 32.5122L24.5675 31.6647Z" fill="white"/>
<path d="M11.6091 11.6032L9.2996 13.9127C9.16042 14.0518 9.08218 14.2407 9.08218 14.4375C9.08218 14.6344 9.16042 14.8232 9.2996 14.9624L13.6312 19.2941C13.7703 19.4332 13.9592 19.5115 14.156 19.5115C14.3529 19.5115 14.5417 19.4332 14.6809 19.2941L20.7121 13.2629C21.002 12.973 21.002 12.503 20.7121 12.2131L18.4027 9.90358C18.2634 9.7644 18.0746 9.68616 17.8778 9.68616C17.6809 9.68616 17.4921 9.7644 17.3529 9.90358L14.1561 13.1004L12.659 11.6033C12.5199 11.4641 12.331 11.3859 12.1342 11.3859C11.9371 11.3858 11.7483 11.464 11.6091 11.6032ZM13.6311 14.6751C13.7703 14.8143 13.9591 14.8925 14.156 14.8925C14.3528 14.8925 14.5417 14.8143 14.6808 14.6751L17.8776 11.4782L19.1374 12.738L14.156 17.7194L10.8742 14.4376L12.134 13.1779L13.6311 14.6751Z" fill="white"/>
<path d="M24.6557 14.5989C24.6557 12.6271 24.0648 10.7307 22.9469 9.11468C21.8552 7.53677 20.3387 6.33016 18.5615 5.62542C18.1803 5.47436 17.749 5.66076 17.5979 6.04185C17.4467 6.42295 17.6332 6.85438 18.0142 7.00551C21.147 8.24775 23.1712 11.2284 23.1712 14.5989C23.1712 19.1013 19.5082 22.7643 15.0059 22.7643C10.5035 22.7643 6.84059 19.1013 6.84059 14.5989C6.84059 11.2283 8.86484 8.24767 11.9976 7.00543C12.3787 6.8543 12.5651 6.42288 12.414 6.04178C12.2629 5.66068 11.8314 5.47422 11.4504 5.62535C9.67306 6.33016 8.15661 7.5367 7.06491 9.11461C5.94693 10.7306 5.35599 12.627 5.35599 14.5989C5.35599 19.9198 9.68494 24.2488 15.0059 24.2488C20.3269 24.2489 24.6557 19.9199 24.6557 14.5989Z" fill="white"/>
<path d="M15.0058 6.43333C15.201 6.43333 15.3926 6.35465 15.5306 6.21584C15.6686 6.07777 15.7481 5.887 15.7481 5.69103C15.7481 5.49581 15.6687 5.30429 15.5306 5.16622C15.3926 5.02816 15.201 4.94873 15.0058 4.94873C14.8106 4.94873 14.6191 5.02816 14.481 5.16622C14.3429 5.30429 14.2635 5.49581 14.2635 5.69103C14.2635 5.887 14.3429 6.07777 14.481 6.21584C14.6191 6.35465 14.8106 6.43333 15.0058 6.43333Z" fill="white"/>
</svg>
