<svg width="32" height="31" viewBox="0 0 32 31" fill="none" xmlns="http://www.w3.org/2000/svg">
<path d="M4.49113 25.3197L7.5 26.8238V30.1875C7.5 30.5327 7.77987 30.8125 8.125 30.8125H14.75C15.0951 30.8125 15.375 30.5327 15.375 30.1875V22.0281C15.375 20.1133 13.9386 18.5253 12.0381 18.3348C12.0307 18.3327 9.39431 17.9211 8.17119 16.698L6.76756 15.295C6.29531 14.8227 5.66756 14.5625 5 14.5625V9.5625C5 8.184 3.8785 7.0625 2.5 7.0625C1.1215 7.0625 0 8.184 0 9.5625V18.0525C0 19.5624 0.419625 21.0394 1.21344 22.3239C2.00719 23.6083 3.14062 24.6442 4.49113 25.3197ZM1.25 9.5625C1.25 8.87325 1.81075 8.3125 2.5 8.3125C3.18925 8.3125 3.75 8.87325 3.75 9.5625V14.8976C2.98775 15.3383 2.5 16.1601 2.5 17.0625C2.5 17.73 2.76013 18.3577 3.23244 18.83L6.43306 22.0312C6.677 22.2753 7.07281 22.2754 7.31694 22.0313C7.561 21.7873 7.56106 21.3916 7.317 21.1474L4.11637 17.9461C3.88013 17.7099 3.75 17.3961 3.75 17.0625C3.75 16.5335 4.08481 16.0598 4.58325 15.8837C4.58344 15.8836 4.58363 15.8835 4.58381 15.8834H4.58388C5.01488 15.7307 5.52619 15.8213 5.88381 16.1789L7.28744 17.582C8.73656 19.0311 11.9026 19.5764 11.9089 19.5781C13.1723 19.7048 14.125 20.7581 14.125 22.0281V29.5625H8.75V26.4375C8.75 26.2008 8.61619 25.9843 8.4045 25.8785L5.05019 24.2016C2.70619 23.0294 1.25 20.6732 1.25 18.0525V9.5625Z" fill="white"/>
<path d="M15.375 15.1876C15.375 15.5327 15.6549 15.8126 16 15.8126C16.3451 15.8126 16.625 15.5327 16.625 15.1876V13.3126H19.0175C22.5231 13.3126 25.375 10.4606 25.375 6.95506V3.93756C25.375 3.68481 25.2227 3.45687 24.9892 3.36012C24.7556 3.26337 24.4868 3.31687 24.3081 3.49562C23.6201 4.18369 22.7054 4.56256 21.7325 4.56256C19.6422 4.56256 17.7844 5.57675 16.625 7.13875V1.43756C16.625 1.09237 16.3451 0.81256 16 0.81256C15.6549 0.81256 15.375 1.09237 15.375 1.43756V4.63881C14.2156 3.07681 12.3578 2.06256 10.2675 2.06256C9.29462 2.06256 8.37994 1.68369 7.69194 0.995623C7.51325 0.816873 7.24437 0.76331 7.01081 0.860123C6.77731 0.956935 6.625 1.18481 6.625 1.43756V4.45506C6.625 7.96062 9.47694 10.8126 12.9825 10.8126H15.375V15.1876ZM21.7325 5.81256C22.5841 5.81256 23.4025 5.59644 24.125 5.19012V6.95506C24.125 9.77137 21.8338 12.0626 19.0175 12.0626H17.875L21.375 9.43756C21.6511 9.2305 21.7071 8.83869 21.5 8.56256C21.2929 8.28644 20.9012 8.23037 20.625 8.43756L16.625 11.4376V10.9201C16.625 8.10381 18.9162 5.81256 21.7325 5.81256ZM7.875 4.45506V2.69012C8.59756 3.09644 9.41594 3.31256 10.2675 3.31256C13.0838 3.31256 15.375 5.60381 15.375 8.42006V8.93756L11.375 5.93756C11.0989 5.7305 10.7071 5.78644 10.5 6.06256C10.2929 6.33869 10.3489 6.7305 10.625 6.93756L14.125 9.56256H12.9825C10.1662 9.56256 7.875 7.27137 7.875 4.45506Z" fill="white"/>
<path d="M28.6875 24.4375C29.0327 24.4375 29.3125 24.1577 29.3125 23.8125C29.3125 23.4673 29.0327 23.1875 28.6875 23.1875C28.3423 23.1875 28.0625 23.4673 28.0625 23.8125C28.0625 24.1577 28.3423 24.4375 28.6875 24.4375Z" fill="white"/>
<path d="M29.5 7.0625C28.1215 7.0625 27 8.184 27 9.5625V14.5625C26.3324 14.5625 25.7047 14.8226 25.2326 15.2948L23.8287 16.6981C22.6326 17.8943 19.9728 18.3326 19.9664 18.3344C18.0614 18.5254 16.625 20.1133 16.625 22.0282V30.1875C16.625 30.5327 16.9049 30.8125 17.25 30.8125H23.875C24.2201 30.8125 24.5 30.5327 24.5 30.1875V26.8238L26.5456 25.8012C26.8543 25.6468 26.9795 25.2714 26.8252 24.9626C26.6709 24.6539 26.2956 24.5287 25.9867 24.6831L23.5955 25.8784C23.3838 25.9844 23.25 26.2008 23.25 26.4375V29.5625H17.875V22.0281C17.875 20.7581 18.8277 19.7048 20.0956 19.5776C20.1019 19.5759 23.1847 19.1098 24.7124 17.582L26.1163 16.1787C26.4741 15.821 26.9859 15.7309 27.4161 15.8834H27.4162C27.4164 15.8834 27.4166 15.8836 27.4167 15.8836C27.9152 16.0598 28.25 16.5336 28.25 17.0625C28.25 17.3961 28.1199 17.7099 27.8837 17.9463L24.6831 21.1475C24.439 21.3916 24.4391 21.7873 24.6831 22.0314C24.9271 22.2754 25.3229 22.2754 25.567 22.0313L28.7676 18.8301C29.2399 18.3577 29.5 17.73 29.5 17.0625C29.5 16.1601 29.0122 15.3383 28.25 14.8976V9.5625C28.25 8.87325 28.8108 8.3125 29.5 8.3125C30.1892 8.3125 30.75 8.87325 30.75 9.5625V18.0525C30.75 19.196 30.4614 20.3313 29.9154 21.3355C29.7505 21.6388 29.8627 22.0182 30.166 22.1831C30.4692 22.3479 30.8488 22.2358 31.0136 21.9326C31.6589 20.7457 32 19.404 32 18.0525V9.5625C32 8.184 30.8785 7.0625 29.5 7.0625Z" fill="white"/>
</svg>
