<svg width="20" height="20" viewBox="0 0 20 20" fill="none" xmlns="http://www.w3.org/2000/svg">
<g clip-path="url(#clip0)">
<path d="M14.3389 0.00404122L11.8683 0C9.09277 0 7.29907 1.87614 7.29907 4.77996V6.98384H4.81504C4.6004 6.98384 4.42657 7.16125 4.42657 7.38008V10.5733C4.42657 10.7921 4.60059 10.9693 4.81504 10.9693H7.29907V19.0267C7.29907 19.2455 7.47289 19.4227 7.68754 19.4227H10.9285C11.1431 19.4227 11.317 19.2453 11.317 19.0267V10.9693H14.2214C14.436 10.9693 14.6098 10.7921 14.6098 10.5733L14.611 7.38008C14.611 7.27501 14.57 7.17438 14.4973 7.10002C14.4245 7.02567 14.3254 6.98384 14.2224 6.98384H11.317V5.11558C11.317 4.21762 11.5268 3.76177 12.6742 3.76177L14.3385 3.76117C14.5529 3.76117 14.7268 3.58376 14.7268 3.36513V0.400081C14.7268 0.181653 14.5531 0.00444535 14.3389 0.00404122Z" fill="white"/>
</g>
<defs>
<clipPath id="clip0">
<rect width="19.0517" height="19.4227" fill="white" transform="translate(0.0507812)"/>
</clipPath>
</defs>
</svg>
