<svg width="32" height="32" viewBox="0 0 32 32" fill="none" xmlns="http://www.w3.org/2000/svg">
<path d="M23.8804 19.2808L23.468 18.8684C23.4679 18.8683 23.4678 18.8682 23.4678 18.8681L19.7747 15.175L27.7924 7.15721L29.557 6.54334C29.7028 6.4926 29.8247 6.38973 29.8991 6.2545L31.9224 2.57933C32.0565 2.33566 32.0135 2.0327 31.8169 1.83603L30.1649 0.184144C29.9683 -0.01246 29.6653 -0.0554554 29.4216 0.0785928L25.7465 2.10188C25.6112 2.17631 25.5083 2.29823 25.4576 2.44403L24.8437 4.20865L22.6925 6.3598C22.4484 6.60384 22.4484 6.99954 22.6925 7.24358C22.9366 7.48768 23.3323 7.48762 23.5763 7.24358L25.3868 5.43302L26.5678 6.61402L18.8908 14.2911L17.7098 13.1101L19.5994 11.2206C19.8434 10.9766 19.8434 10.5809 19.5994 10.3368C19.3553 10.0927 18.9596 10.0927 18.7155 10.3368L16.826 12.2263L12.7155 8.11586C13.305 5.88972 12.6787 3.53641 11.0355 1.89321C8.96468 -0.177568 5.75115 -0.597773 3.22067 0.871383C3.05287 0.968811 2.93982 1.1386 2.91476 1.33102C2.8897 1.52338 2.95532 1.71648 3.09256 1.85372L6.33627 5.09737C6.68043 5.44152 6.68043 6.00152 6.33627 6.34568C6.16954 6.51241 5.94788 6.60421 5.71209 6.60421C5.4763 6.60421 5.25464 6.51241 5.08791 6.34568L1.84675 3.10446C1.70939 2.96716 1.51604 2.90142 1.32337 2.92679C1.13077 2.9521 0.960908 3.06559 0.863731 3.23382C0.140995 4.48487 -0.141912 5.96503 0.0671281 7.40163C0.280543 8.86828 1.00315 10.2303 2.10185 11.2368C3.72524 12.724 5.99744 13.2747 8.11527 12.7166L10.9866 15.5879L1.12795 25.4466C-0.368076 26.9426 -0.368076 29.3769 1.12795 30.873C1.876 31.621 2.85858 31.9951 3.84123 31.9951C4.82381 31.9951 5.80639 31.621 6.55444 30.873L16.413 21.0144L19.2798 23.8811C18.7218 25.9987 19.2725 28.2712 20.7596 29.8945C21.766 30.9932 23.128 31.7158 24.5947 31.9292C24.9035 31.9741 25.2141 31.9963 25.5243 31.9963C26.6569 31.9963 27.7804 31.7 28.7625 31.1327C28.9307 31.0355 29.0442 30.8656 29.0695 30.673C29.0949 30.4804 29.0292 30.287 28.8919 30.1496L25.6507 26.9084C25.4839 26.7418 25.3921 26.52 25.3921 26.2843C25.3921 26.0485 25.4839 25.8269 25.6507 25.6602C25.8173 25.4935 26.0391 25.4016 26.2748 25.4016C26.5106 25.4016 26.7322 25.4935 26.899 25.6601L30.1426 28.9038C30.2799 29.041 30.473 29.1067 30.6654 29.0816C30.8577 29.0566 31.0276 28.9435 31.125 28.7757C32.5941 26.2453 32.1739 23.0317 30.1031 20.9609C28.4599 19.3176 26.1065 18.6912 23.8804 19.2808ZM29.6131 1.39995L30.601 2.38785L28.9198 5.44165L27.6165 5.89504L26.1059 4.38445L26.5593 3.08115L29.6131 1.39995ZM5.67059 29.9892C4.66183 30.9979 3.0205 30.998 2.0118 29.9892C1.00309 28.9804 1.00309 27.3391 2.0118 26.3304L9.27096 19.0712L12.9298 22.73L5.67059 29.9892ZM13.8135 21.8462L10.1547 18.1874L11.8704 16.4717L15.5292 20.1305L13.8135 21.8462ZM30.4033 27.3968L27.7827 24.7763C27.3799 24.3735 26.8443 24.1517 26.2747 24.1517C25.7051 24.1517 25.1696 24.3734 24.7668 24.7763C24.364 25.179 24.1422 25.7146 24.1422 26.2842C24.1422 26.8539 24.364 27.3894 24.7668 27.7922L27.3847 30.4101C25.408 31.1697 23.158 30.6623 21.6811 29.0503C20.4108 27.6637 19.9881 25.6891 20.5779 23.8972C20.6516 23.6732 20.5929 23.4267 20.4262 23.2599L8.73639 11.5701C8.56966 11.4034 8.32312 11.3447 8.09909 11.4184C6.30721 12.0081 4.33267 11.5854 2.94607 10.3152C1.33399 8.83841 0.826672 6.58846 1.58628 4.61174L4.20406 7.22958C4.6069 7.63235 5.1424 7.8542 5.71203 7.8542C6.28165 7.8542 6.81716 7.63241 7.21999 7.22958C8.05147 6.39811 8.05147 5.04519 7.21999 4.21372L4.59946 1.59299C6.49438 0.867259 8.68046 1.30571 10.1517 2.77699C11.5518 4.17722 12.0368 6.21675 11.4172 8.09961C11.3434 8.32359 11.4021 8.57006 11.5689 8.73686L23.2594 20.4274C23.4261 20.5941 23.6726 20.6528 23.8967 20.5791C25.7795 19.9594 27.8191 20.4444 29.2192 21.8446C30.6905 23.3159 31.1291 25.502 30.4033 27.3968Z" fill="white"/>
<path d="M11.7301 10.8465C11.4861 10.6024 11.0904 10.6024 10.8463 10.8465C10.6023 11.0905 10.6023 11.4862 10.8463 11.7303L20.2658 21.1499C20.3879 21.272 20.5478 21.333 20.7077 21.333C20.8677 21.333 21.0276 21.272 21.1496 21.1499C21.3937 20.9059 21.3937 20.5102 21.1496 20.2661L11.7301 10.8465Z" fill="white"/>
<path d="M21.1461 9.41503C21.3105 9.41503 21.4717 9.34816 21.5879 9.23192C21.7042 9.11506 21.771 8.95445 21.771 8.79009C21.771 8.62511 21.7042 8.4645 21.5879 8.34764C21.4717 8.2314 21.3105 8.16516 21.1461 8.16516C20.9817 8.16516 20.8205 8.2314 20.7043 8.34764C20.588 8.4645 20.5212 8.62511 20.5212 8.79009C20.5212 8.95445 20.588 9.11506 20.7043 9.23192C20.8205 9.34816 20.9817 9.41503 21.1461 9.41503Z" fill="white"/>
</svg>
