<svg width="38" height="38" viewBox="0 0 38 38" fill="none" xmlns="http://www.w3.org/2000/svg">
<path d="M35.7925 18.2577L37.9172 14.1452C38.0361 13.9151 38.0264 13.6397 37.8917 13.4185C37.757 13.1974 37.5168 13.0624 37.2578 13.0624H35.9784C36.04 11.7733 36.0702 10.4064 36.0702 8.90614C36.0702 8.49623 35.7379 8.16396 35.328 8.16396C31.2356 8.16396 27.9061 4.83459 27.9061 0.742185C27.9061 0.332276 27.5739 0 27.164 0H10.836C10.4261 0 10.0938 0.332276 10.0938 0.742185C10.0938 1.69834 9.91433 2.62949 9.5603 3.50964C9.40734 3.88994 9.5917 4.32219 9.97199 4.47515C10.3524 4.62819 10.7845 4.44376 10.9375 4.06346C11.2703 3.23585 11.4747 2.37113 11.5477 1.48437H26.4524C26.8105 5.80381 30.2642 9.25853 34.5834 9.61745C34.5752 10.8452 34.5451 11.9821 34.4923 13.0624H30.1706C25.7753 3.60843 12.2207 3.61392 7.82945 13.0624H3.50719C3.45472 11.9844 3.42474 10.8475 3.41657 9.6176C4.25079 9.5485 5.06638 9.3631 5.84975 9.06378C6.75566 8.67569 6.25291 7.36217 5.31991 7.67716C4.47471 8.00016 3.58386 8.16388 2.67201 8.16388C2.26211 8.16388 1.92983 8.49616 1.92983 8.90607C1.92983 10.4094 1.95974 11.7763 2.02112 13.0623H0.742185C0.483237 13.0623 0.242992 13.1973 0.108286 13.4185C-0.0264209 13.6396 -0.0360693 13.9151 0.0828286 14.1451L2.20748 18.2576L0.0828286 22.37C-0.0360693 22.6002 -0.0264209 22.8755 0.108286 23.0968C0.242992 23.3179 0.483237 23.4529 0.742185 23.4529H3.62594C5.95143 31.109 10.9218 35.8614 18.8079 37.9745C18.9337 38.0082 19.0662 38.0082 19.1921 37.9745C27.0779 35.8615 32.0482 31.1091 34.3738 23.4529H37.2578C37.5168 23.4529 37.757 23.3179 37.8917 23.0967C38.0264 22.8755 38.0361 22.6001 37.9172 22.37L35.7925 18.2577ZM12.9537 9.26952L13.3104 9.88731C13.5165 10.2456 13.9756 10.362 14.3242 10.1589C14.6792 9.95403 14.8009 9.50011 14.5959 9.14512L14.238 8.52525C15.466 7.92193 16.8241 7.54438 18.2578 7.44693V8.16396C18.297 9.14869 19.7034 9.14794 19.7422 8.16396V7.44693C21.1759 7.54438 22.5341 7.92193 23.762 8.52525L23.4041 9.1452C23.1991 9.50019 23.3208 9.95411 23.6758 10.159C24.0244 10.3621 24.4835 10.2456 24.6896 9.88738L25.0463 9.26959C26.2054 10.0519 27.2058 11.0523 27.9882 12.2115L27.3704 12.5682C27.0154 12.7731 26.8937 13.227 27.0987 13.582C27.3048 13.9403 27.7639 14.0568 28.1125 13.8536L28.7324 13.4957C29.3357 14.7238 29.7133 16.0818 29.8107 17.5156H29.0937C28.109 17.5547 28.1097 18.9611 29.0937 18.9999H29.8107C29.7133 20.4337 29.3357 21.7918 28.7324 23.0197L28.1125 22.6619C27.2402 22.2035 26.5376 23.4217 27.3704 23.9473L27.9882 24.304C27.2059 25.4632 26.2055 26.4636 25.0463 27.2459L24.6896 26.6281C24.4847 26.273 24.0307 26.1515 23.6758 26.3565C23.3208 26.5614 23.1991 27.0153 23.4041 27.3703L23.762 27.9902C22.534 28.5936 21.1759 28.9711 19.7422 29.0686V28.3515C19.703 27.3668 18.2966 27.3675 18.2578 28.3515V29.0686C16.8241 28.9711 15.466 28.5936 14.238 27.9902L14.5959 27.3704C14.8009 27.0154 14.6792 26.5614 14.3242 26.3565C13.9693 26.1516 13.5154 26.2733 13.3104 26.6282L12.9537 27.246C11.7946 26.4637 10.7942 25.4633 10.0119 24.3042L10.6297 23.9475C10.9847 23.7426 11.1063 23.2886 10.9014 22.9337C10.6964 22.5786 10.2424 22.457 9.88753 22.662L9.26766 23.0199C8.66434 21.7919 8.28679 20.4338 8.18934 19.0001H8.90636C9.89109 18.9609 9.89035 17.5545 8.90636 17.5157H8.18934C8.28679 16.082 8.66434 14.7239 9.26766 13.4959L9.88761 13.8538C10.2363 14.0569 10.6953 13.9404 10.9014 13.5821C11.1064 13.2271 10.9848 12.7732 10.6298 12.5683L10.012 12.2116C10.7942 11.0522 11.7946 10.0518 12.9537 9.26952ZM3.70224 18.5983C3.81268 18.3847 3.81268 18.1307 3.70224 17.917L1.96108 14.5467H7.25077C6.49397 16.8684 6.49397 19.647 7.25077 21.9686H1.961L3.70224 18.5983ZM19 36.4885C11.9124 34.5352 7.38281 30.2649 5.18149 23.4529H7.82938C12.2247 32.9068 25.7793 32.9013 30.1705 23.4529H32.8181C30.6169 30.265 26.0873 34.5353 19 36.4885ZM30.7493 21.9685C31.5061 19.6469 31.5061 16.8683 30.7493 14.5467H36.0389L34.2978 17.9169C34.1873 18.1306 34.1873 18.3846 34.2978 18.5983L36.039 21.9685H30.7493Z" fill="white"/>
<path d="M19.0001 20.4843C19.9676 20.4843 20.7931 19.8639 21.0994 19H24.6405C25.6253 18.9608 25.6245 17.5544 24.6405 17.5156H21.0994C20.8754 16.8839 20.3739 16.3823 19.7422 16.1584V11.1329C19.7031 10.1482 18.2967 10.1489 18.2579 11.1329V16.1585C15.9331 17.019 16.4909 20.4371 19.0001 20.4843ZM19.0001 19C18.5908 19 18.2579 18.667 18.2579 18.2578C18.2986 17.2732 19.7016 17.2734 19.7422 18.2578C19.7422 18.667 19.4093 19 19.0001 19Z" fill="white"/>
<path d="M8.39485 7.30664C9.37958 7.26745 9.37884 5.86108 8.39485 5.82227H8.39433C7.40959 5.8616 7.41093 7.2679 8.39485 7.30664Z" fill="white"/>
</svg>
