<svg width="29" height="38" viewBox="0 0 29 38" fill="none" xmlns="http://www.w3.org/2000/svg">
<path d="M4.77344 15.3633C4.77344 15.7732 4.44119 16.1055 4.03125 16.1055C3.62131 16.1055 3.28906 15.7732 3.28906 15.3633C3.28906 14.9533 3.62131 14.6211 4.03125 14.6211C4.44119 14.6211 4.77344 14.9533 4.77344 15.3633Z" fill="white"/>
<path d="M14.0102 37.8753C14.1349 37.9583 14.2784 38 14.4219 38C14.5654 38 14.7089 37.9583 14.8336 37.8753L21.5831 33.3752C25.929 30.4784 28.5234 25.6304 28.5234 20.407V5.2159C28.5234 4.89699 28.3193 4.61345 28.017 4.51227L14.6576 0.038269C14.5045 -0.0127563 14.339 -0.0127563 14.1862 0.038269L0.826798 4.51227C0.524124 4.61345 0.320312 4.89699 0.320312 5.2159V20.407C0.320312 25.6304 2.91478 30.4784 7.26064 33.3752L14.0102 37.8753ZM1.80469 20.407V5.75021L14.4219 1.52467L27.0391 5.75021V20.407C27.0391 25.1329 24.6916 29.5191 20.7598 32.1402L14.4219 36.3657L8.084 32.1402C4.15215 29.5193 1.80469 25.1329 1.80469 20.407Z" fill="white"/>
<path d="M14.0102 34.3077C14.1349 34.3906 14.2784 34.4323 14.4219 34.4323C14.5654 34.4323 14.7089 34.3906 14.8336 34.3077L19.9361 30.9055C23.4542 28.5603 25.5547 24.636 25.5547 20.4079V7.35581C25.5547 7.0369 25.3509 6.75336 25.0485 6.65218L14.6579 3.16825C14.5048 3.11693 14.339 3.11693 14.1859 3.16825L3.79526 6.65218C3.49287 6.75336 3.28906 7.0369 3.28906 7.35581V12.3946C3.28906 12.8042 3.62131 13.1368 4.03125 13.1368C4.4409 13.1368 4.77344 12.8042 4.77344 12.3946V7.88984L14.4219 4.65465L24.0703 7.88984V20.4079C24.0703 24.1388 22.2169 27.6013 19.1127 29.6704L14.4219 32.7981L9.73102 29.6701C6.62659 27.6013 4.77344 24.1385 4.77344 20.4079V18.3321C4.77344 17.9221 4.4409 17.5899 4.03125 17.5899C3.62131 17.5899 3.28906 17.9221 3.28906 18.3321V20.4079C3.28906 24.6363 5.38951 28.5606 8.90765 30.9055L14.0102 34.3077Z" fill="white"/>
<path d="M11.3633 24.3592C11.7836 24.7799 12.3429 25.0115 12.9375 25.0115C13.5321 25.0115 14.0911 24.7799 14.5118 24.3592L20.4493 18.4217C21.3193 17.5517 21.3196 16.1436 20.4493 15.2735C19.5792 14.4035 18.1711 14.4032 17.3008 15.2732L12.9375 19.6368L11.543 18.2423C10.6733 17.3722 9.26484 17.3719 8.39451 18.2423C7.52418 19.1123 7.52418 20.5204 8.39451 21.3908L11.3633 24.3592ZM9.44401 19.2918C9.73421 19.0019 10.2033 19.0019 10.4932 19.2918L12.4125 21.211C12.7024 21.5007 13.1723 21.5007 13.4623 21.211L18.3503 16.323C18.6405 16.0331 19.1093 16.0331 19.3998 16.323C19.6897 16.6129 19.6897 17.082 19.3995 17.3722L13.462 23.3097C13.3216 23.4501 13.1355 23.5275 12.9375 23.5275C12.7395 23.5275 12.5531 23.4501 12.4128 23.3097L9.44401 20.341C9.15409 20.0511 9.1538 19.582 9.44401 19.2918Z" fill="white"/>
</svg>
