<svg width="36" height="27" viewBox="0 0 36 27" fill="none" xmlns="http://www.w3.org/2000/svg">
<path d="M7.93205 4.13733C7.55141 4.13733 7.24249 4.44625 7.24249 4.82688C7.24249 5.20752 7.55141 5.51644 7.93205 5.51644C8.31268 5.51644 8.6216 5.20752 8.6216 4.82688C8.6216 4.44625 8.31268 4.13733 7.93205 4.13733Z" fill="white"/>
<path d="M32.8202 10.0345L31.8225 8.03902C31.4697 7.33347 30.7608 6.89526 29.9722 6.89526H24.205V2.06859C24.205 0.928001 23.2771 0 22.1364 0H2.416C1.27534 0 0.347412 0.927933 0.347412 2.06859V19.9962C0.347412 21.1368 1.27534 22.0648 2.416 22.0648H4.4846C4.4846 23.1236 4.88488 24.0904 5.54141 24.8229H1.03697C0.656125 24.8229 0.347412 25.1317 0.347412 25.5125C0.347412 25.8932 0.656125 26.202 1.03697 26.202H34.9616C35.3425 26.202 35.6512 25.8932 35.6512 25.5125C35.6512 25.1317 35.3425 24.8229 34.9616 24.8229H33.2153C33.8719 24.0903 34.2721 23.1236 34.2721 22.0648C34.2721 22.0255 34.2702 21.9864 34.2691 21.9472C35.0732 21.6634 35.6511 20.8962 35.6511 19.9962V16.1845C35.6511 15.3799 35.8105 16.1311 32.8202 10.0345ZM31.7773 11.0324L33.8459 15.1696H26.9631V11.0324H31.7773ZM1.72645 16.5486H3.10549V17.9276H1.72645V16.5486ZM8.62171 24.8229C7.1009 24.8229 5.86364 23.5856 5.86364 22.0648C5.86364 21.877 5.88225 21.6921 5.91949 21.5124C6.17883 20.2343 7.31528 19.3067 8.62171 19.3067C9.92814 19.3067 11.0647 20.2343 11.3239 21.5124C11.3241 21.5134 11.3243 21.5143 11.3246 21.5152C11.3612 21.6921 11.3798 21.877 11.3798 22.0648C11.3798 23.5856 10.1425 24.8229 8.62171 24.8229ZM8.62171 17.9276C6.85501 17.9276 5.29586 19.0594 4.72104 20.6857H2.416C2.03578 20.6857 1.72645 20.3764 1.72645 19.9962V19.3066H3.79504C4.17588 19.3066 4.4846 18.9978 4.4846 18.6171V15.859C4.4846 15.4782 4.17588 15.1694 3.79504 15.1694H1.72645V2.06859C1.72645 1.68837 2.03578 1.37904 2.416 1.37904H22.1364C22.5166 1.37904 22.826 1.68837 22.826 2.06859C22.826 2.58155 22.826 19.0322 22.826 20.6858H12.522C11.9462 19.0586 10.3877 17.9276 8.62171 17.9276ZM11.702 24.8229C12.3586 24.0903 12.7588 23.1236 12.7588 22.0648C13.2883 22.0648 25.7723 22.0648 25.9977 22.0648C25.9977 23.1236 26.398 24.0904 27.0545 24.8229H11.702ZM30.1349 24.8229C28.6141 24.8229 27.3768 23.5856 27.3768 22.0648C27.3768 21.877 27.3954 21.6921 27.4327 21.5124C27.692 20.2343 28.8285 19.3067 30.1349 19.3067C31.4413 19.3067 32.5778 20.2343 32.8371 21.5124C32.8373 21.5134 32.8375 21.5143 32.8377 21.5152C32.8744 21.6921 32.893 21.877 32.893 22.0648C32.893 23.5856 31.6557 24.8229 30.1349 24.8229ZM34.2721 19.9962C34.2721 20.2256 34.1591 20.4285 33.9863 20.554C33.3746 18.9978 31.8528 17.9277 30.1349 17.9277C28.3682 17.9277 26.809 19.0595 26.2342 20.6858H24.2049V8.2743H29.9722C30.235 8.2743 30.4713 8.42049 30.589 8.65569L31.0878 9.65334H26.2736C25.8928 9.65334 25.584 9.96212 25.584 10.3429V15.8591C25.584 16.2399 25.8928 16.5487 26.2736 16.5487H34.2721V19.9962Z" fill="white"/>
<path d="M19.3784 4.13733H10.6904C10.3095 4.13733 10.0008 4.44611 10.0008 4.82688C10.0008 5.20765 10.3095 5.51644 10.6904 5.51644H19.3784C19.7593 5.51644 20.068 5.20765 20.068 4.82688C20.068 4.44611 19.7592 4.13733 19.3784 4.13733Z" fill="white"/>
<path d="M19.3784 6.89526H13.4485C13.0676 6.89526 12.7589 7.20405 12.7589 7.58482C12.7589 7.96559 13.0676 8.27437 13.4485 8.27437H19.3784C19.7593 8.27437 20.068 7.96559 20.068 7.58482C20.068 7.20405 19.7592 6.89526 19.3784 6.89526Z" fill="white"/>
<path d="M30.1349 20.6859C29.3745 20.6859 28.7559 21.3046 28.7559 22.065C28.7559 22.8254 29.3746 23.444 30.1349 23.444C30.8954 23.444 31.514 22.8253 31.514 22.065C31.514 21.3045 30.8954 20.6859 30.1349 20.6859Z" fill="white"/>
<path d="M8.62165 20.6859C7.86121 20.6859 7.24261 21.3046 7.24261 22.065C7.24261 22.8254 7.86128 23.444 8.62165 23.444C9.38209 23.444 10.0007 22.8253 10.0007 22.065C10.0007 21.3045 9.38209 20.6859 8.62165 20.6859Z" fill="white"/>
</svg>
